<svg xmlns="http://www.w3.org/2000/svg" viewBox="0 0 442.82 113.73"><defs><style>.cls-1{fill:#fff;}</style></defs><title>HMRC_whiteAsset 2</title><g id="Layer_2" data-name="Layer 2"><g id="Layer_1-2" data-name="Layer 1"><path class="cls-1" d="M0,54.51c.16-1.21.34-2.42.46-3.63A56,56,0,0,1,8.64,27,56.87,56.87,0,0,1,17,16.48,56.26,56.26,0,0,1,35.76,4.09,55.6,55.6,0,0,1,50.81.32a58,58,0,0,1,12.5,0A56.26,56.26,0,0,1,76.94,3.57a57.4,57.4,0,0,1,14.67,8.17,56.61,56.61,0,0,1,12.33,13,55.54,55.54,0,0,1,9,21.58,52.23,52.23,0,0,1,1,12.77,57.23,57.23,0,0,1-1.76,11.81,62.63,62.63,0,0,1-3.9,10.74A57.16,57.16,0,0,1,76.9,110.2a54,54,0,0,1-12.59,3.09,57.28,57.28,0,0,1-20.78-1.19A57.12,57.12,0,0,1,9,87.28,58,58,0,0,1,3.6,76.38,63.27,63.27,0,0,1,.3,62.05c-.12-.94-.2-1.87-.3-2.81Zm57.15,52.78a50.44,50.44,0,1,0-50.48-47A50.39,50.39,0,0,0,57.15,107.29Z"/><path class="cls-1" d="M189.4,41.27l2.4-9.18q3-11.52,6.08-23.05c.14-.54.36-.79,1-.78,2.4,0,4.8,0,7.2,0,.77,0,1,.35,1.11,1,.45,4.42.88,8.85,1.36,13.26.41,3.71.9,7.41,1.3,11.11.45,4.08.85,8.16,1.27,12.24.15,1.35.31,2.7.48,4.2-2.21,0-4.29,0-6.37,0-.19,0-.48-.54-.52-.85q-1-9.33-1.86-18.67c-.37-3.71-.71-7.42-1.3-11.19a7.11,7.11,0,0,0-.46,1Q197.22,34.7,193.4,49c-.21.76-.49,1.14-1.38,1.11-2.06-.08-4.12,0-6.17,0a1.22,1.22,0,0,1-.92-.65c-1.55-5.22-3-10.45-4.55-15.69q-2.07-7.22-4.14-14.43c0-.09-.09-.17-.36-.28-.12,1-.27,1.95-.36,2.93-.3,3.37-.56,6.75-.87,10.12-.39,4.11-.83,8.23-1.23,12.34-.15,1.6-.3,3.2-.4,4.8,0,.61-.19.91-.9.89-1.94,0-3.89,0-6,0,.09-1.14.15-2.15.25-3.15.54-5,1.1-10,1.65-15,.42-3.9.81-7.8,1.24-11.7.26-2.41.59-4.81.86-7.22.15-1.32.28-2.65.34-4,0-.66.27-.81.87-.81,2.54,0,5.07,0,7.61,0,.68,0,1,.25,1.12.89q1.37,5.19,2.8,10.36c.72,2.59,1.49,5.16,2.22,7.75,1.21,4.31,2.39,8.62,3.6,12.92a11.39,11.39,0,0,0,.41,1.11Z"/><path class="cls-1" d="M324.26,73.53c1.48-.52,2.88-1.11,4.32-1.51a15.08,15.08,0,0,1,10.05.32,8.27,8.27,0,0,1,2.08,1.28,1.13,1.13,0,0,0,1.45.17,21,21,0,0,1,8.53-2.39c2.57-.13,5.11,0,7.34,1.42a7.91,7.91,0,0,1,3.69,7c.08,8,0,16,0,24.08,0,.75-.21,1-1,1-1.68-.05-3.36-.06-5,0-.8,0-1.06-.2-1.05-1,0-7.68,0-15.36.06-23a3.17,3.17,0,0,0-3.47-3.49c-2.35.12-4.69.42-7,.65-.67.06-.9.35-.88,1.14.09,4,.06,8,.07,11.93,0,4.26,0,8.51,0,12.76,0,.88-.28,1.12-1.12,1.09-1.61-.05-3.22-.07-4.83,0-.93,0-1.15-.26-1.15-1.16,0-7.54,0-15.09,0-22.63a6.59,6.59,0,0,0-.17-1.53,2.79,2.79,0,0,0-2.72-2.24,28,28,0,0,0-8.37.83v1.6c0,8,0,16,0,24,0,.91-.25,1.18-1.16,1.15-1.64-.07-3.29,0-4.94,0-.73,0-1-.16-1-1q0-15.48,0-31c0-.86.27-1.15,1.11-1.1s1.92,0,2.88,0C323.7,71.85,323.7,71.85,324.26,73.53Z"/><path class="cls-1" d="M256.75,50.1c-2.58,0-5,0-7.37,0a1.16,1.16,0,0,1-.85-.63c-1.7-4.11-3.35-8.23-5-12.34a17.91,17.91,0,0,0-1.17-2.26c-1-1.68-2.57-2.15-4.36-2.2-1.3,0-2.61,0-3.91,0-.79,0-1,.3-1,1,0,4.94,0,9.87,0,14.81,0,1.66,0,1.66-1.6,1.66H226.1a22.33,22.33,0,0,1-.22-2.27c0-12.75,0-25.5,0-38.26,0-1,.26-1.34,1.32-1.33,4.62.06,9.25-.05,13.88.05,3.67.08,7.19.9,9.91,3.55,3.28,3.21,3.76,7.23,2.76,11.51-.83,3.56-3.35,5.64-6.52,7.1-.27.13-.54.26-.53.22a20.24,20.24,0,0,1,2.14,2.6c1.28,2.2,2.52,4.44,3.61,6.75,1.43,3,2.7,6.18,4,9.27C256.55,49.52,256.62,49.74,256.75,50.1ZM232.6,20.53h.06c0,1.95,0,3.91,0,5.86,0,.58.21.81.78.8,2.37,0,4.74,0,7.1-.12a6.61,6.61,0,0,0,4.23-1.61c1.88-1.78,2.07-4.12,1.79-6.47-.4-3.26-1.23-4.26-4.52-4.71-2.87-.39-5.81-.27-8.71-.38-.72,0-.73.47-.72,1Z"/><path class="cls-1" d="M150.39,88.9l2.48-4c.63-1,1-2.39,1.95-2.93s2.25-.18,3.42-.2,2.3,0,3.54,0c-1.14,1.83-2.22,3.51-3.26,5.2-1.26,2-2.46,4.1-3.75,6.1-.49.76,0,1.13.38,1.58l7.74,9.59a5.33,5.33,0,0,1,.39.64c-2.77,0-5.4,0-8,0-.24,0-.52-.29-.71-.52-1.21-1.46-2.41-2.95-3.71-4.55-.77.8-1.44,1.56-2.17,2.25a12.69,12.69,0,0,1-8.71,3.34c-3.73.09-7.21-.64-10.05-3.29S126,95.83,126.16,92a11.53,11.53,0,0,1,2.26-6.79,12,12,0,0,1,5.39-3.77l1-.38c-.66-1.06-1.31-2-1.88-3.06-2.06-3.68-2.25-10,2.39-13.21a11.14,11.14,0,0,1,6.37-2A25.36,25.36,0,0,1,151,63.93c.61.23.88.49.84,1.17a23.78,23.78,0,0,0,0,2.67c0,.7-.24.88-.89.87-2.57,0-5.15,0-7.72,0a6.12,6.12,0,0,0-1.13.06c-3.12.6-4.44,3.16-3,6.17a18.15,18.15,0,0,0,2.54,3.7c2.75,3.37,5.57,6.67,8.36,10A4.45,4.45,0,0,0,150.39,88.9Zm-16.93,3.65a18.63,18.63,0,0,0,.28,2.44,5.63,5.63,0,0,0,2.43,3.86,7.18,7.18,0,0,0,9.44-2.14c1.26-1.84,1.34-1.47-.15-3.2-2.21-2.55-4.35-5.17-6.55-7.73a1.34,1.34,0,0,0-1.11-.44,7.81,7.81,0,0,0-2.52,1.24C133.58,88.07,133.54,90.18,133.46,92.55Z"/><path class="cls-1" d="M152.35,8.28c2.28,0,4.37,0,6.45,0,.22,0,.48.34.61.58s0,.47,0,.71v39.1c0,1.42,0,1.42-1.38,1.42h-5.64c0-.5,0-.9,0-1.3q0-8.28,0-16.56c0-.68-.09-1.09-.93-1.08-5.35,0-10.7,0-16.05,0-.17,0-.34,0-.65.06v1.11c0,5.48,0,11,0,16.46,0,.94-.21,1.36-1.27,1.31-1.91-.08-3.83,0-5.81,0,0-.29-.08-.52-.08-.74V9.75c0-1.47,0-1.48,1.43-1.48,1.58,0,3.15,0,4.73,0,.75,0,1,.17,1,1,0,5.07,0,10.15,0,15.22v1.11h1.94c4.8,0,9.6,0,14.4,0,1.07,0,1.32-.33,1.31-1.35,0-4.87,0-9.74,0-14.61Z"/><path class="cls-1" d="M282.16,88.4c.25-3.92.8-7.67,2.93-11A12.27,12.27,0,0,1,293,71.88a20,20,0,0,1,11.49.61,11.53,11.53,0,0,1,6.29,5.4c2.45,4.32,2.63,9,2.18,13.7a15.85,15.85,0,0,1-3.75,9.45,12,12,0,0,1-5.79,3.5,20.48,20.48,0,0,1-11.43-.06c-4.69-1.38-7.49-4.64-8.71-9.24A67.77,67.77,0,0,1,282.16,88.4Zm7.49-.11.18,0c.1,1.39.1,2.8.3,4.19.59,4,2.18,7.11,6.8,7.3S304,98.57,305,94.59a27.26,27.26,0,0,0,.15-12.09c-.5-2.49-1.65-4.69-4.37-5.27a16.58,16.58,0,0,0-5.07-.22,5.47,5.47,0,0,0-5,4.64C290.19,83.83,290,86.08,289.65,88.29Z"/><path class="cls-1" d="M224.92,103.43c-1.86.52-3.63,1.14-5.46,1.48-3.48.65-7,.77-10.17-1.13a9.55,9.55,0,0,1-4.8-8.44c-.14-7.5-.05-15,0-22.53,0-.31.29-.9.47-.91,2.14-.06,4.29,0,6.56,0v1.33q0,10.8,0,21.61a8,8,0,0,0,.18,1.62,3.09,3.09,0,0,0,2.91,2.82,26.14,26.14,0,0,0,8.28-.29c1.74-.26,1.73-.35,1.73-2.15,0-7.89,0-15.78,0-23.66,0-1.07.31-1.37,1.34-1.31,1.61.08,3.22,0,4.84,0,.59,0,.83.15.82.82q0,15,0,29.94c0,2.25,0,2.25-2.27,2.25-.93,0-1.86-.06-2.78,0s-1.32-.13-1.38-1A1.55,1.55,0,0,0,224.92,103.43Z"/><path class="cls-1" d="M440.79,44.9a28.87,28.87,0,0,1-.05,3.51c0,.33-.66.75-1.09.85a42.86,42.86,0,0,1-5.8,1.17,23.71,23.71,0,0,1-9.37-.58c-4.8-1.52-7.51-5-8.62-9.71a25.15,25.15,0,0,1,.36-13.76A12.8,12.8,0,0,1,427,17.71a17.49,17.49,0,0,1,7.48.67,11.06,11.06,0,0,1,6.75,6.31,26.18,26.18,0,0,1,1.46,11h-1.08l-18.21,0c-1.16,0-1.23.07-1,1.24a23.9,23.9,0,0,0,.72,3.6,6,6,0,0,0,5.77,4.18c3.49.19,7,.16,10.48.22ZM429,30.69h0c1.84,0,3.69,0,5.54,0,.28,0,.79-.3.8-.48.07-1.95,0-3.87-1.28-5.54-1.82-2.35-6.78-2.17-8.75-1-2.29,1.36-2.61,3.67-2.9,6-.1.84.25,1.07,1,1.05C425.33,30.66,427.18,30.69,429,30.69Z"/><path class="cls-1" d="M325.5,35.7c0,2.89.34,5.54,2.59,7.5,1.65,1.43,3.72,1.64,5.77,1.68,2.85.06,5.69,0,8.54,0h1.53c0,1.23.05,2.28,0,3.33a1.22,1.22,0,0,1-.66.83,25.53,25.53,0,0,1-9,1.53,18,18,0,0,1-8.31-1.42,12.09,12.09,0,0,1-6.45-7.56,24.85,24.85,0,0,1-.39-14.24c1.45-5.57,5.48-8.94,11.18-9.64a15.14,15.14,0,0,1,9.15,1.42,11.4,11.4,0,0,1,5.55,7.05,27.33,27.33,0,0,1,1,8.73c0,.78-.45.77-1,.77q-9.21,0-18.41,0Zm6.71-5h5.65c.5,0,1-.1.89-.7a20.73,20.73,0,0,0-.9-4.55c-.75-1.93-2.6-2.49-4.52-2.6s-4,0-5.63,1.55S325.91,28,325.78,30c0,.19.57.61.89.62C328.52,30.72,330.37,30.69,332.21,30.69Z"/><path class="cls-1" d="M265.2,35.69c.25,2.89.45,5.62,2.8,7.56,1.69,1.39,3.75,1.6,5.81,1.64,2.95,0,5.9,0,8.85,0,.86,0,1.19.25,1.09,1.11a5,5,0,0,0,0,1.44c.23,1.22-.39,1.67-1.46,2a27.79,27.79,0,0,1-14.1.63c-5.07-1.18-8.1-4.67-9.31-9.65a23.93,23.93,0,0,1,.43-14.21,12.33,12.33,0,0,1,10.42-8.41,15,15,0,0,1,9.56,1.41c3.17,1.66,4.8,4.46,5.7,7.78a31.36,31.36,0,0,1,.83,7.73c0,.86-.3,1-1.08,1-6.13,0-12.27,0-18.41,0Zm7.3-5h0c1.88,0,3.76,0,5.64,0,.28,0,.8-.3.8-.48.07-2,0-4-1.41-5.69-1.75-2.09-6.5-2-8.53-.91-2.42,1.36-2.68,3.77-3,6.16-.09.72.22,1,.93,1C268.8,30.67,270.65,30.69,272.5,30.69Z"/><path class="cls-1" d="M202.1,99.38c0,1.25,0,2.41,0,3.57a1,1,0,0,1-.84,1.08c-4.43,1.11-8.92,1.9-13.49,1.21a15.7,15.7,0,0,1-12.93-10,31.39,31.39,0,0,1-1.92-9.3,32.46,32.46,0,0,1,.88-11c1.64-6.45,5.51-10.92,12.11-12.62a23.54,23.54,0,0,1,10.66-.15c1.36.28,2.73.59,4.1.87a.89.89,0,0,1,.78,1c0,1,0,2,0,3,0,.64-.25.83-.85.83-2.92,0-5.83-.08-8.75,0-3.73.07-7.15.92-9.29,4.38a14.89,14.89,0,0,0-1.9,6.42A35.51,35.51,0,0,0,181,90,13.06,13.06,0,0,0,184,96.3a9.57,9.57,0,0,0,7.1,2.93c3.22.08,6.44,0,9.67,0C201.18,99.26,201.61,99.33,202.1,99.38Z"/><path class="cls-1" d="M351,18c1.95,0,3.83-.07,5.69.06.35,0,.65.81,1.05,1.36a6.36,6.36,0,0,0,.84-.26A21.46,21.46,0,0,1,367,17.55c6.37.05,10.51,4.41,10.44,10.43-.08,6.92,0,13.85,0,20.78v1.29h-6.86V48.9q0-10.55,0-21.09c0-3.15-1.21-4.48-4.36-4.44-2.39,0-4.78.27-7.18.42-.84.05-1.19.42-1.19,1.37,0,7.92,0,15.85,0,23.77,0,.91-.2,1.27-1.18,1.22-1.57-.08-3.16,0-4.73,0-.69,0-1-.17-1-.92C351,38.89,351,28.57,351,18Z"/><path class="cls-1" d="M402.94,44.24V18c2.16,0,4.21,0,6.25,0,.2,0,.44.35.55.58a1.9,1.9,0,0,1,0,.72c0,9.84,0,19.68,0,29.53,0,1-.2,1.4-1.3,1.33-1.56-.1-3.14,0-4.68,0-.59-1.41-.58-1.37-2-.9a20,20,0,0,1-11.39.92,9.18,9.18,0,0,1-6.93-8.22c-.18-6.37-.16-12.75-.21-19.12,0-1.34,0-2.68,0-4,0-.61.2-.85.84-.84,1.54,0,3.08,0,4.63,0s1.41,0,1.42,1.38c0,6.9,0,13.79,0,20.69a7.74,7.74,0,0,0,.42,2.8c.7,1.8,2.43,2,4,2,2.32,0,4.64-.32,6.95-.5C402,44.33,402.38,44.29,402.94,44.24Z"/><path class="cls-1" d="M317.17,18c-.55,1.63-1,3.15-1.56,4.65q-3.35,9.62-6.71,19.22c-.88,2.52-1.78,5-2.62,7.55a1,1,0,0,1-1.13.77c-2,0-4,0-6,0a1.09,1.09,0,0,1-1.24-.9q-4.14-12-8.33-24c-.7-2-1.42-4-2.11-6-.13-.38-.21-.78-.33-1.27,2.22,0,4.33,0,6.44,0a1.43,1.43,0,0,1,1,.81c2,5.89,3.88,11.79,5.8,17.7.56,1.74,1.1,3.49,1.64,5.23l.32,0c.37-1.06.76-2.11,1.12-3.18q3.24-9.87,6.49-19.75c.12-.34.52-.82.8-.83C312.86,17.92,315,18,317.17,18Z"/><path class="cls-1" d="M372,99.53c2.05-.09,4.11-.13,6.15-.31a3,3,0,0,0,3-2.13,3.08,3.08,0,0,0-1.2-3.72c-1.23-.79-2.53-1.47-3.81-2.18-2-1.14-4.15-2.11-6-3.42a8.27,8.27,0,0,1-3.56-8.7c.65-3.88,3.16-6.19,6.88-7.19,4-1.07,7.93-.45,11.81.66a1.08,1.08,0,0,1,.6.8c.07,1.09,0,2.19,0,3.29,0,.7-.44.65-.9.65h-8.43a4,4,0,0,0-.92,0c-1.14.26-2.22.66-2.48,2a2.85,2.85,0,0,0,1.35,3.19c1.51.92,3.1,1.69,4.64,2.56a62.33,62.33,0,0,1,5.56,3.22c5.38,3.8,4.17,12.71-1.76,15.56A16.62,16.62,0,0,1,374,105.2c-2.09-.2-4.15-.66-6.23-1-1-.14-1.45-.55-1.32-1.61a13.29,13.29,0,0,0,0-2.36c0-.65.23-.84.84-.83,1.57,0,3.15,0,4.73,0Z"/><path class="cls-1" d="M242.81,99.53c2-.09,4-.09,6-.31,2.45-.27,3.84-2.38,2.81-4.48A6.62,6.62,0,0,0,249,92.36c-2.28-1.3-4.72-2.32-7-3.63a9.26,9.26,0,0,1-4.55-5.22,8.82,8.82,0,0,1,6.06-11.46,20.52,20.52,0,0,1,10.94.14c.29.08.6.1.89.19.8.23,1.37.61,1.24,1.62a12.4,12.4,0,0,0,0,2.36c0,.73-.26.94-1,.93-3,0-5.9,0-8.85,0a2.77,2.77,0,0,0-3,2,2.16,2.16,0,0,0,.63,2.52c1.5,1.1,3.11,2,4.72,3,2.13,1.26,4.43,2.3,6.43,3.75,4.45,3.23,3.54,9.8,1.23,12.62s-5.28,3.82-8.63,4.1a37.38,37.38,0,0,1-9.87-1c-.78-.15-1.19-.46-1.1-1.35a17,17,0,0,0,0-2.57c0-.68.24-.9.9-.89,1.58,0,3.15,0,4.73,0Z"/><path class="cls-1" d="M272.22,77.28v1.37c0,5.65,0,11.31,0,17,0,2.95,1,3.67,3.88,3.81,1.26.06,2.54,0,3.8,0,.8,0,1,.26,1,1-.06.93,0,1.86,0,2.78a1,1,0,0,1-.45.78,16.63,16.63,0,0,1-8.44,1.18c-4.16-.7-6.76-4.09-6.76-8.37q0-9.17,0-18.31V77.28c-1.3,0-2.55,0-3.8,0-.9,0-1.23-.23-1.17-1.15.08-1.13,0-2.26,0-3.4,0-.66.24-.92.91-.91,1.2,0,2.4,0,3.6,0,.75,0,1.08-.21,1.22-1,.45-2.59,1-5.16,1.46-7.74.14-.76.43-1.07,1.21-1s1.64,0,2.47,0,1.17.24,1.15,1.15c-.06,2.5,0,5,0,7.5,0,.82.28,1.09,1.07,1.08,2,0,4,0,6,0,.73,0,1.06.17,1,1-.06,1.19,0,2.4,0,3.6,0,.68-.23.88-.9.87C277.05,77.26,274.72,77.28,272.22,77.28Z"/><path class="cls-1" d="M45.14,72.23a6.68,6.68,0,0,0,.16-2.07,2.07,2.07,0,0,0-1.11-1.37,1.81,1.81,0,0,0-1.49.67c-1.15,1.49-.61,3.38,1.22,4.4a5,5,0,0,0,3.23.74,22.46,22.46,0,0,1,3.18-.06c3.23,0,5-1.68,5.26-5.12-2.59.08-4,1.71-5.06,3.81-.51-.65-.67-8.51-.26-9.89a18.77,18.77,0,0,0,2,2.82,3.94,3.94,0,0,0,3.29.94c-.08-2.85-1.61-4.42-4.37-5l.16-.34a3.34,3.34,0,0,1,.76-.17c3,0,6,0,8.95,0a2.32,2.32,0,0,1,.76.3,2.75,2.75,0,0,1-.64.55,5.85,5.85,0,0,0-3.45,4.66c2.75,0,4.31-1.36,5-4l.35.25a3.93,3.93,0,0,1,.19.89c0,2.67,0,5.35,0,8a2.62,2.62,0,0,1-.34.87c-.2-.2-.48-.35-.6-.59a6,6,0,0,0-3.51-3,7.4,7.4,0,0,0-1-.18,5.21,5.21,0,0,0,5.25,5.16c1.24,0,2.47.09,3.7.07a4.32,4.32,0,0,0,4-2.25,2.52,2.52,0,0,0-.42-3.09c-.89-.92-2-.71-2.36.53a10.94,10.94,0,0,0,0,2.51,6.72,6.72,0,0,1-1.26-1,4,4,0,0,1-.16-4.6c1.05-1.48,2.88-1.42,4.16.14l.7.81.3-.1c-.15-.84-.25-1.69-.46-2.51-.45-1.75-1-3.48-.61-5.34a7.87,7.87,0,0,1,2.1-4.24c.5-.47.93-.51,1.36.06a7.65,7.65,0,0,1,1.24,7c-.42,1.54-1.07,3-1.61,4.53a9.23,9.23,0,0,0-.16,1c.53-.47.84-.75,1.16-1,2-1.73,3.76-.91,4.36,1.12a3.54,3.54,0,0,1-2.62,4.58c.18-.45.33-.8.46-1.16.4-1.15.07-2.17-.77-2.48a2,2,0,0,0-2.3,1.54A3.44,3.44,0,0,0,76,74.72a10.54,10.54,0,0,0,2.56.63c1.15.16,2.32.21,3.47.3a4,4,0,0,0,3-1.39,5.93,5.93,0,0,0,2-3.47,6.19,6.19,0,0,0-5.71,3.77L81,74.3l1.29-10.4.26,0A16.75,16.75,0,0,0,84,67.26a4.08,4.08,0,0,0,3.33,1.54c0-2.69-1.4-4.4-3.6-5.67l.19-.25c.42,0,.84,0,1.26,0,1,.1,2,.21,3,.36,1.18.18,1.61.67,1.44,1.91-.39,2.92-.86,5.82-1.29,8.72A27.45,27.45,0,0,0,88,76.72a2,2,0,0,1-1,1.76c-.61.39-1.17.84-1.78,1.21s-.59.74-.19,1.25a25.51,25.51,0,0,1,1.71,2.31,1.56,1.56,0,0,1,.16,1.12c-.05.17-.57.3-.87.3q-23.46,0-46.92,0c-4,0-7.95-.05-11.93-.09-.3,0-.82-.09-.86-.24a1.52,1.52,0,0,1,.16-1,18.77,18.77,0,0,1,1.42-2.13c.54-.7.52-1.31-.28-1.66-2.14-.94-2.52-2.72-2.71-4.8-.27-3-.79-5.88-1.27-8.81-.33-2-.08-2.43,1.95-2.69.84-.11,1.68-.26,2.53-.36a3.15,3.15,0,0,1,1.26.12c-2,1.48-3.59,3.08-3.5,5.81a3.79,3.79,0,0,0,3.36-1.59c.68-1,1-2.17,1.72-3.26.44,3.46.87,6.91,1.3,10.37l-.37.19c-1.25-2.15-2.91-3.64-5.6-3.73a4.05,4.05,0,0,0,1.36,3c1.28,1.4,2.75,2.41,4.87,1.9,1.25-.3,2.59-.22,3.86-.46a4.09,4.09,0,0,0,3.14-3.06,2.59,2.59,0,0,0-1.43-2.78,1.68,1.68,0,0,0-1.4.26,2.24,2.24,0,0,0-.52,1.55,5.82,5.82,0,0,0,.58,1.67,2.68,2.68,0,0,1-2.53-2.22,3.6,3.6,0,0,1,.37-3.25,2.21,2.21,0,0,1,3.31-.57,7.07,7.07,0,0,0,1.75,1c-.28-.82-.6-1.63-.83-2.46a21.5,21.5,0,0,1-1.19-4.82,9,9,0,0,1,1.06-4.11c.75-1.52,1.42-1.46,2.33-.23a7.89,7.89,0,0,1,1.49,6.78c-.28,1.16-.6,2.31-.87,3.47a2.6,2.6,0,0,0,.07,1.42l.75-.86a2.74,2.74,0,0,1,3.15-1.11,3,3,0,0,1,1.67,3C47.19,70.82,46.61,71.73,45.14,72.23Zm-8.58,7c0,1.39.63,2,2,1.91,2-.13,4-.27,5.93-.36a1.32,1.32,0,0,0,1.34-1,1.81,1.81,0,0,0-1.92-2.61c-1.9.12-3.81.25-5.72.36C36.92,77.54,36.57,77.9,36.56,79.18Zm40.08,0c0-1.24-.36-1.68-1.47-1.75l-5.92-.37c-1.28-.08-1.84.45-1.91,1.8s.46,1.76,1.76,1.82c1.84.08,3.68.18,5.51.33C76,81.18,76.64,80.66,76.64,79.23Zm-17-.5c-.06-.22-.05-.43-.16-.54-.78-.81-1.56-1.62-2.41-2.37-.14-.13-.67,0-.87.14a17.27,17.27,0,0,0-2.08,2.11,1.14,1.14,0,0,0,0,1.1,13.84,13.84,0,0,0,2,2,1.11,1.11,0,0,0,1.09,0,25.78,25.78,0,0,0,2-2A2.19,2.19,0,0,0,59.6,78.73Z"/><path class="cls-1" d="M28.31,40.3c-1.36-1.14-1.78-2.07-1.39-3a2.21,2.21,0,0,1,2.18-1.17c1,.17,1.56.9,1.79,2.58L33.11,38c-.9-1.08-1-2.17,0-3.13a1.84,1.84,0,0,1,2.29-.24c1.19.65,1.09,1.76.75,3l2.25.12c-.22-1.33-.19-2.54,1.22-3a1.76,1.76,0,0,1,2.12.62,2.13,2.13,0,0,1-.37,3l2.11.64c-.31-1.41-.21-2.64,1.26-3a2.49,2.49,0,0,1,2,.52c1,1,.63,2.19-.48,3.27l1.71.44C48,39,48.53,38.06,49.7,38a2.64,2.64,0,0,1,1.93.84c.81,1,.34,2-.48,2.88.43.28.78.55,1.16.75a3.13,3.13,0,0,1,1.73,3V58.76c0,1.45,0,1.47-1.51,1.44-.21,0-.41,0-.8-.05,0-2.24,0-4.46,0-6.67s0-4.39,0-6.58a2.19,2.19,0,0,0-1.42-2.23,44.2,44.2,0,0,0-12.52-4c-4.5-.71-8,1.08-10.46,4.76a12.13,12.13,0,0,0-.9,12.37c.55,1.22,1.09,2.43,1.73,3.88-.85.1-1.87.53-2.45.2s-.79-1.44-1.16-2.19c-1.92.3-2.7,0-3.14-1.12s.06-1.9,1.62-2.81c0-.81,0-1.46-1.21-1.26a1.81,1.81,0,0,1-1.95-1.9,1.76,1.76,0,0,1,1.89-1.93c.27,0,.54,0,.85,0a3.49,3.49,0,0,0,.28-1.1c0-.26-.32-.72-.51-.72a2,2,0,0,1-2-1.53,1.81,1.81,0,0,1,.78-2.07,2,2,0,0,1,2.48.15,4.53,4.53,0,0,0,.48.23l.87-1.51a16.1,16.1,0,0,1-2.11-1.25c-.25-.2-.29-.75-.29-1.14A1.91,1.91,0,0,1,24,39.78c1.23-.22,1.9.25,2.66,2Z"/><path class="cls-1" d="M85,40.31l1.49,1.23a14.51,14.51,0,0,1,1.77-1.63,1.75,1.75,0,0,1,1.28,0,2,2,0,0,1,1.34,2c.06,1-.84,1.67-2.47,2q.23.57.45,1.11c.23.55.5.78,1.06.28a1.89,1.89,0,0,1,2.29-.06A1.83,1.83,0,0,1,93,47.35a1.72,1.72,0,0,1-1.7,1.37c-.27,0-.53.11-.79.16-.08,1.53-.08,1.53,1.28,1.71a1.85,1.85,0,0,1,1.71,2,1.83,1.83,0,0,1-1.8,1.84c-.34,0-.68,0-1.06,0-.28.66-.71,1.24.42,1.65a1.86,1.86,0,0,1,.89,2.38A1.73,1.73,0,0,1,90,59.8a9.88,9.88,0,0,1-1.23-.18l-.44,1c-.77,1.58-1.36,1.76-3.13.92.52-1.18,1-2.38,1.57-3.53a12.12,12.12,0,0,0,.56-9.84,11,11,0,0,0-7.57-7.33,12.21,12.21,0,0,0-6.37.23,49.28,49.28,0,0,0-10.5,3.71,2,2,0,0,0-1.28,2c0,3.94-.12,7.88-.18,11.82,0,1.85-.14,1.94-2.12,1.51V52.9c0-2.4.08-4.8,0-7.2a3.26,3.26,0,0,1,2-3.43,6.25,6.25,0,0,0,.66-.43c-1-2.14-.75-3.3.65-3.82s2.26.32,2.77,2.25L67,39.89c-.79-1.13-1.42-2.2-.39-3.33a1.77,1.77,0,0,1,2-.54c1.47.48,1.46,1.62,1.33,3l1.91-.53c-.67-1.16-1.23-2.26-.06-3.31a1.8,1.8,0,0,1,2.08-.36c1.28.59,1.33,1.68,1.06,2.93h.66c1.38,0,1.37,0,1.36-1.35,0-.82.31-1.61,1.12-1.78a3.18,3.18,0,0,1,2.09.25,1.71,1.71,0,0,1,.62,2.1,11.35,11.35,0,0,1-.46,1l2.27.81c-.07-1.48.36-2.6,1.91-2.7a1.86,1.86,0,0,1,1.89,1.31C86.81,38.49,86.53,39.08,85,40.31Z"/><path class="cls-1" d="M61.49,17.37A5.21,5.21,0,0,0,57.74,22c2.42-.14,3.78-1.42,4.53-3.81.23.51.39.7.39.89,0,2.4,0,4.79,0,7.19a2.5,2.5,0,0,1-.38.92,3.29,3.29,0,0,1-.65-.64A4.7,4.7,0,0,0,57.77,24c.1,2.42,1.66,3.67,3.61,4.75a39.44,39.44,0,0,1-9.65,0c2.42-.72,3.91-2.1,3.9-4.76a3.26,3.26,0,0,0-2.74,1,27.29,27.29,0,0,0-2.06,2.39v-9A17.78,17.78,0,0,0,52.68,21a3.4,3.4,0,0,0,2.91.88C55.65,19.2,54,18,51.87,17.05h9.51Z"/><path class="cls-1" d="M56.67,29.68A4.37,4.37,0,0,1,61,33.93a4.42,4.42,0,0,1-4.42,4.45,4.49,4.49,0,0,1-4.31-4.25C52.21,31.86,54.45,29.43,56.67,29.68Z"/><path class="cls-1" d="M56.57,56.64a1.88,1.88,0,0,1,2,1.84,1.91,1.91,0,0,1-3.81.05A1.76,1.76,0,0,1,56.57,56.64Z"/><path class="cls-1" d="M56.66,51.9a1.66,1.66,0,0,1,1.78,1.77,1.69,1.69,0,0,1-1.68,1.8,1.85,1.85,0,0,1-1.94-1.8A1.77,1.77,0,0,1,56.66,51.9Z"/><path class="cls-1" d="M56.61,47.34A1.64,1.64,0,0,1,58.37,49a1.66,1.66,0,0,1-1.74,1.71A1.63,1.63,0,0,1,55,49.05,1.6,1.6,0,0,1,56.61,47.34Z"/><path class="cls-1" d="M56.68,43.07a1.73,1.73,0,0,1,1.66,1.68,1.76,1.76,0,0,1-1.81,1.58A1.58,1.58,0,0,1,55,44.72,1.55,1.55,0,0,1,56.68,43.07Z"/><path class="cls-1" d="M58.27,40.6A1.61,1.61,0,1,1,56.78,39,1.63,1.63,0,0,1,58.27,40.6Z"/></g></g></svg>